HIERARCHY
ROOT newVegas:Hips
{
	OFFSET 0.000000 96.479958 0.000000
	CHANNELS 6 Xposition Yposition Zposition Xrotation Yrotation Zrotation
	JOINT newVegas:Pelvis
	{
		OFFSET 0.000000 0.000000 0.000000
		CHANNELS 3 Xrotation Yrotation Zrotation
		JOINT newVegas:LeftUpLeg
		{
			OFFSET 18.735201 -5.666702 -4.541200
			CHANNELS 3 Xrotation Yrotation Zrotation
			JOINT newVegas:LeftLeg
			{
				OFFSET -0.021200 -31.938179 0.493100
				CHANNELS 3 Xrotation Yrotation Zrotation
				JOINT newVegas:LeftFoot
				{
					OFFSET 0.021200 -31.938179 -4.336299
					CHANNELS 3 Xrotation Yrotation Zrotation
					JOINT newVegas:LeftToeBase
					{
						OFFSET 0.943001 -26.722000 15.023500
						CHANNELS 3 Xrotation Yrotation Zrotation
						End Site
						{
							OFFSET 0.000000 30.670183 0.000000
						}
					}
				}
				JOINT newVegas:Left_PantLeg
				{
					OFFSET 0.663870 -9.044666 -1.108900
					CHANNELS 3 Xrotation Yrotation Zrotation
					End Site
					{
						OFFSET 1.415995 20.635357 0.000000
					}
				}
			}
		}
		JOINT newVegas:RightUpLeg
		{
			OFFSET -18.735201 -5.666702 -4.541200
			CHANNELS 3 Xrotation Yrotation Zrotation
			JOINT newVegas:RightLeg
			{
				OFFSET 0.018946 -31.938133 0.493100
				CHANNELS 3 Xrotation Yrotation Zrotation
				JOINT newVegas:RightFoot
				{
					OFFSET -0.018946 -31.938126 -4.336299
					CHANNELS 3 Xrotation Yrotation Zrotation
					JOINT newVegas:RightToeBase
					{
						OFFSET -0.943001 -26.722004 15.023500
						CHANNELS 3 Xrotation Yrotation Zrotation
						End Site
						{
							OFFSET 0.000000 30.670187 0.000000
						}
					}
				}
				JOINT newVegas:Right_PantLeg
				{
					OFFSET -0.661674 -9.044716 -1.108900
					CHANNELS 3 Xrotation Yrotation Zrotation
					End Site
					{
						OFFSET -1.415958 20.635269 0.000000
					}
				}
			}
		}
	}
	JOINT newVegas:Spine
	{
		OFFSET 0.000000 10.199997 -0.299500
		CHANNELS 3 Xrotation Yrotation Zrotation
		JOINT newVegas:Spine1
		{
			OFFSET 0.000000 11.900002 -1.516600
			CHANNELS 3 Xrotation Yrotation Zrotation
			JOINT newVegas:Spine2
			{
				OFFSET 0.000000 13.600006 -2.842500
				CHANNELS 3 Xrotation Yrotation Zrotation
				JOINT newVegas:Neck
				{
					OFFSET 0.000000 9.624100 -2.890100
					CHANNELS 3 Xrotation Yrotation Zrotation
					JOINT newVegas:Head
					{
						OFFSET 0.000000 14.068802 -1.351900
						CHANNELS 3 Xrotation Yrotation Zrotation
						JOINT newVegas:Hair_Back
						{
							OFFSET 0.000000 3.231903 -17.524799
							CHANNELS 3 Xrotation Yrotation Zrotation
							End Site
							{
								OFFSET 0.000000 19.849884 0.000000
							}
						}
						JOINT newVegas:Hair_Front
						{
							OFFSET 0.000000 31.260406 4.573800
							CHANNELS 3 Xrotation Yrotation Zrotation
							JOINT newVegas:Hair_Front1
							{
								OFFSET 0.000000 2.284103 11.993300
								CHANNELS 3 Xrotation Yrotation Zrotation
								JOINT newVegas:Hair_Front2
								{
									OFFSET 0.000000 2.284103 11.993300
									CHANNELS 3 Xrotation Yrotation Zrotation
									End Site
									{
										OFFSET 0.000000 12.208862 0.000000
									}
								}
							}
						}
						JOINT newVegas:Jowel
						{
							OFFSET 0.000000 -7.458206 6.864100
							CHANNELS 3 Xrotation Yrotation Zrotation
							End Site
							{
								OFFSET 0.000000 19.849884 0.000000
							}
						}
					}
				}
				JOINT newVegas:LeftShoulder
				{
					OFFSET 15.263000 10.923401 -0.547700
					CHANNELS 3 Xrotation Yrotation Zrotation
					JOINT newVegas:LeftArm
					{
						OFFSET 25.438599 -2.830597 -13.032500
						CHANNELS 3 Xrotation Yrotation Zrotation
						JOINT newVegas:LeftForeArm
						{
							OFFSET 29.960503 0.000000 0.000000
							CHANNELS 3 Xrotation Yrotation Zrotation
							JOINT newVegas:LeftHand
							{
								OFFSET 27.849251 0.000000 0.000000
								CHANNELS 3 Xrotation Yrotation Zrotation
								JOINT newVegas:LeftHandThumb1
								{
									OFFSET 4.487587 -3.305161 6.305391
									CHANNELS 3 Xrotation Yrotation Zrotation
									JOINT newVegas:LeftHandThumb2
									{
										OFFSET 5.480453 -3.164139 3.164143
										CHANNELS 3 Xrotation Yrotation Zrotation
										JOINT newVegas:LeftHandThumb3
										{
											OFFSET 5.159721 -2.978973 2.978967
											CHANNELS 3 Xrotation Yrotation Zrotation
											End Site
											{
												OFFSET 2.494507 5.926697 1.738678
											}
										}
									}
								}
								JOINT newVegas:LeftHandIndex1
								{
									OFFSET 18.578728 -0.527832 5.208049
									CHANNELS 3 Xrotation Yrotation Zrotation
									JOINT newVegas:LeftHandIndex2
									{
										OFFSET 3.192009 0.000000 0.000000
										CHANNELS 3 Xrotation Yrotation Zrotation
										JOINT newVegas:LeftHandIndex3
										{
											OFFSET 3.835129 0.000000 0.000000
											CHANNELS 3 Xrotation Yrotation Zrotation
											End Site
											{
												OFFSET -0.034599 3.816971 0.371180
											}
										}
									}
								}
								JOINT newVegas:LeftHandMiddle1
								{
									OFFSET 18.476105 0.000000 0.000000
									CHANNELS 3 Xrotation Yrotation Zrotation
									JOINT newVegas:LeftHandMiddle2
									{
										OFFSET 3.324875 0.000000 0.000000
										CHANNELS 3 Xrotation Yrotation Zrotation
										JOINT newVegas:LeftHandMiddle3
										{
											OFFSET 4.596550 0.000000 0.000000
											CHANNELS 3 Xrotation Yrotation Zrotation
											End Site
											{
												OFFSET 0.057701 4.578827 0.399218
											}
										}
									}
								}
								JOINT newVegas:LeftHandRing1
								{
									OFFSET 17.732719 0.121887 -4.201567
									CHANNELS 3 Xrotation Yrotation Zrotation
									JOINT newVegas:LeftHandRing2
									{
										OFFSET 2.733170 0.000000 0.000000
										CHANNELS 3 Xrotation Yrotation Zrotation
										JOINT newVegas:LeftHandRing3
										{
											OFFSET 3.178268 0.000000 0.000000
											CHANNELS 3 Xrotation Yrotation Zrotation
											End Site
											{
												OFFSET 0.119102 3.170624 0.185394
											}
										}
									}
								}
								JOINT newVegas:LeftHandPinky1
								{
									OFFSET 15.989624 -0.606689 -7.535461
									CHANNELS 3 Xrotation Yrotation Zrotation
									JOINT newVegas:LeftHandPinky2
									{
										OFFSET 2.538986 0.000000 0.000000
										CHANNELS 3 Xrotation Yrotation Zrotation
										JOINT newVegas:LeftHandPinky3
										{
											OFFSET 2.593102 0.000000 0.000000
											CHANNELS 3 Xrotation Yrotation Zrotation
											End Site
											{
												OFFSET -0.150902 2.584198 0.152708
											}
										}
									}
								}
							}
							JOINT newVegas:Left_Sleeve
							{
								OFFSET 0.267448 -0.649796 0.577675
								CHANNELS 3 Xrotation Yrotation Zrotation
								End Site
								{
									OFFSET 0.000000 15.991241 0.000000
								}
							}
							JOINT newVegas:Left_CapeC
							{
								OFFSET 15.715958 -8.608795 -6.935905
								CHANNELS 3 Xrotation Yrotation Zrotation
								JOINT newVegas:Left_CapeC1
								{
									OFFSET 0.000000 -8.688499 0.000000
									CHANNELS 3 Xrotation Yrotation Zrotation
									End Site
									{
										OFFSET 0.000000 8.688499 0.000000
									}
								}
							}
						}
						JOINT newVegas:Left_CapeB
						{
							OFFSET 26.118385 -8.608795 -7.079235
							CHANNELS 3 Xrotation Yrotation Zrotation
							JOINT newVegas:Left_CapeB1
							{
								OFFSET 0.000000 -8.688499 0.000000
								CHANNELS 3 Xrotation Yrotation Zrotation
								End Site
								{
									OFFSET 0.000000 8.688499 0.000000
								}
							}
						}
						JOINT newVegas:Left_CapeA
						{
							OFFSET 5.115639 -8.608795 -10.395809
							CHANNELS 3 Xrotation Yrotation Zrotation
							JOINT newVegas:Left_CapeA1
							{
								OFFSET 0.000000 -8.688499 0.000000
								CHANNELS 3 Xrotation Yrotation Zrotation
								End Site
								{
									OFFSET 0.000000 8.688499 0.000000
								}
							}
						}
					}
				}
				JOINT newVegas:RightShoulder
				{
					OFFSET -15.263000 10.923401 -0.547700
					CHANNELS 3 Xrotation Yrotation Zrotation
					JOINT newVegas:RightArm
					{
						OFFSET -25.438599 -2.830597 -13.032500
						CHANNELS 3 Xrotation Yrotation Zrotation
						JOINT newVegas:RightForeArm
						{
							OFFSET -29.960503 0.000000 0.000000
							CHANNELS 3 Xrotation Yrotation Zrotation
							JOINT newVegas:RightHand
							{
								OFFSET -27.849251 0.000000 0.000000
								CHANNELS 3 Xrotation Yrotation Zrotation
								JOINT newVegas:RightHandThumb1
								{
									OFFSET -4.487587 -3.305161 6.305391
									CHANNELS 3 Xrotation Yrotation Zrotation
									JOINT newVegas:RightHandThumb2
									{
										OFFSET -5.480453 -3.164139 3.164143
										CHANNELS 3 Xrotation Yrotation Zrotation
										JOINT newVegas:RightHandThumb3
										{
											OFFSET -5.159721 -2.978973 2.978967
											CHANNELS 3 Xrotation Yrotation Zrotation
											End Site
											{
												OFFSET -2.494507 5.926697 1.738678
											}
										}
									}
								}
								JOINT newVegas:RightHandIndex1
								{
									OFFSET -18.578728 -0.527832 5.208049
									CHANNELS 3 Xrotation Yrotation Zrotation
									JOINT newVegas:RightHandIndex2
									{
										OFFSET -3.192009 0.000000 0.000000
										CHANNELS 3 Xrotation Yrotation Zrotation
										JOINT newVegas:RightHandIndex3
										{
											OFFSET -3.835129 0.000000 0.000000
											CHANNELS 3 Xrotation Yrotation Zrotation
											End Site
											{
												OFFSET 0.034599 3.816971 0.371180
											}
										}
									}
								}
								JOINT newVegas:RightHandMiddle1
								{
									OFFSET -18.476105 0.000000 0.000000
									CHANNELS 3 Xrotation Yrotation Zrotation
									JOINT newVegas:RightHandMiddle2
									{
										OFFSET -3.324875 0.000000 0.000000
										CHANNELS 3 Xrotation Yrotation Zrotation
										JOINT newVegas:RightHandMiddle3
										{
											OFFSET -4.596550 0.000000 0.000000
											CHANNELS 3 Xrotation Yrotation Zrotation
											End Site
											{
												OFFSET -0.057701 4.578827 0.399218
											}
										}
									}
								}
								JOINT newVegas:RightHandRing1
								{
									OFFSET -17.732719 0.121887 -4.201567
									CHANNELS 3 Xrotation Yrotation Zrotation
									JOINT newVegas:RightHandRing2
									{
										OFFSET -2.733170 0.000000 0.000000
										CHANNELS 3 Xrotation Yrotation Zrotation
										JOINT newVegas:RightHandRing3
										{
											OFFSET -3.178268 0.000000 0.000000
											CHANNELS 3 Xrotation Yrotation Zrotation
											End Site
											{
												OFFSET -0.119102 3.170624 0.185394
											}
										}
									}
								}
								JOINT newVegas:RightHandPinky1
								{
									OFFSET -15.989624 -0.606689 -7.535461
									CHANNELS 3 Xrotation Yrotation Zrotation
									JOINT newVegas:RightHandPinky2
									{
										OFFSET -2.538986 0.000000 0.000000
										CHANNELS 3 Xrotation Yrotation Zrotation
										JOINT newVegas:RightHandPinky3
										{
											OFFSET -2.593102 0.000000 0.000000
											CHANNELS 3 Xrotation Yrotation Zrotation
											End Site
											{
												OFFSET 0.150902 2.584198 0.152708
											}
										}
									}
								}
							}
							JOINT newVegas:Right_CapeC
							{
								OFFSET -15.715958 -8.608795 -6.935905
								CHANNELS 3 Xrotation Yrotation Zrotation
								JOINT newVegas:Right_CapeC1
								{
									OFFSET 0.000000 -8.688499 0.000000
									CHANNELS 3 Xrotation Yrotation Zrotation
									End Site
									{
										OFFSET 0.000000 8.688499 0.000000
									}
								}
							}
							JOINT newVegas:Right_Sleeve
							{
								OFFSET -0.267448 -0.649994 0.577675
								CHANNELS 3 Xrotation Yrotation Zrotation
								End Site
								{
									OFFSET 0.000000 15.991302 0.000000
								}
							}
						}
						JOINT newVegas:Right_CapeA
						{
							OFFSET -5.115540 -8.608795 -10.395824
							CHANNELS 3 Xrotation Yrotation Zrotation
							JOINT newVegas:Right_CapeA1
							{
								OFFSET 0.000000 -8.688499 0.000000
								CHANNELS 3 Xrotation Yrotation Zrotation
								End Site
								{
									OFFSET 0.000000 8.688499 0.000000
								}
							}
						}
						JOINT newVegas:Right_CapeB
						{
							OFFSET -26.118187 -8.608795 -7.079266
							CHANNELS 3 Xrotation Yrotation Zrotation
							JOINT newVegas:Right_CapeB1
							{
								OFFSET 0.000000 -8.688499 0.000000
								CHANNELS 3 Xrotation Yrotation Zrotation
								End Site
								{
									OFFSET 0.000000 8.688499 0.000000
								}
							}
						}
					}
				}
				JOINT newVegas:Left_Collar
				{
					OFFSET 18.625099 8.655502 8.828100
					CHANNELS 3 Xrotation Yrotation Zrotation
					JOINT newVegas:Left_Collar1
					{
						OFFSET 14.783401 10.540405 -1.259500
						CHANNELS 3 Xrotation Yrotation Zrotation
						End Site
						{
							OFFSET 0.000000 18.199875 0.000000
						}
					}
				}
				JOINT newVegas:Collar_Back
				{
					OFFSET 0.000000 15.630707 -20.132601
					CHANNELS 3 Xrotation Yrotation Zrotation
					End Site
					{
						OFFSET 0.000000 22.523010 0.000000
					}
				}
				JOINT newVegas:Left_Peck
				{
					OFFSET 17.239599 -5.132599 25.482599
					CHANNELS 3 Xrotation Yrotation Zrotation
					End Site
					{
						OFFSET 0.000000 22.523010 0.000000
					}
				}
				JOINT newVegas:Right_Peck
				{
					OFFSET -17.239599 -5.132202 25.482599
					CHANNELS 3 Xrotation Yrotation Zrotation
					End Site
					{
						OFFSET 0.000000 22.523010 0.000000
					}
				}
				JOINT newVegas:Right_Collar
				{
					OFFSET -18.625099 8.655792 8.828100
					CHANNELS 3 Xrotation Yrotation Zrotation
					JOINT newVegas:Right_Collar1
					{
						OFFSET -14.783401 10.539993 -1.259500
						CHANNELS 3 Xrotation Yrotation Zrotation
						End Site
						{
							OFFSET 0.000000 18.199631 0.000000
						}
					}
				}
			}
		}
		JOINT newVegas:Belly
		{
			OFFSET 0.000000 -6.540398 9.014299
			CHANNELS 3 Xrotation Yrotation Zrotation
			End Site
			{
				OFFSET 0.000000 11.566666 0.000000
			}
		}
	}
	JOINT newVegas:ElvisFacialAnim_Joint
	{
		OFFSET 1.000000 -95.330101 -8.825800
		CHANNELS 3 Xrotation Yrotation Zrotation
		End Site
		{
			OFFSET 0.000000 35.315800 0.000000
		}
	}
}
MOTION
Frames: 4
Frame Time: 0.016667
0.013640 94.158676 3.861881 -3.661843 3.344685 2.164738 0.000000 -0.000000 0.000000 -2.598251 8.064651 4.607787 18.444185 3.599698 0.672398 -11.479893 0.917963 -5.368371 0.000000 0.000001 0.000000 -0.000001 -0.000002 0.000000 -3.341318 -11.316689 -11.702898 22.244615 -4.423526 -1.301979 -14.067458 -2.863962 10.810973 -0.000000 -0.000001 0.000000 -0.000001 0.000001 -0.000001 4.353813 -0.777549 -0.502791 1.013959 -0.170731 0.054478 1.013874 -0.177046 0.069540 0.376926 -0.217855 0.050826 0.376927 -0.217855 0.050826 0.000000 0.000000 -0.000000 0.376855 -0.217853 0.050825 0.376997 -0.217859 0.050827 -0.000000 -0.000000 0.000000 0.000000 0.000000 -0.000000 0.674921 -2.078744 -16.856781 4.778423 -6.136923 -37.933873 0.000022 -66.118936 0.000048 -4.833202 -7.576958 -60.543050 -7.220050 -16.942334 15.004578 8.348823 0.689827 4.880203 0.000004 -0.000003 0.000000 -0.978076 -1.241633 -15.183688 1.002388 3.278822 -33.989699 -0.000001 0.000002 -0.000001 0.805765 5.211327 -29.108822 1.066645 3.372082 -35.098153 0.000002 -0.000001 -0.000002 6.496563 12.626955 -37.570842 1.949528 4.363746 -48.129102 -0.000002 -0.000001 0.000004 9.161901 25.681028 -47.169860 0.954732 3.207153 -33.147820 0.000001 0.000002 -0.000001 0.000001 0.000001 -0.000002 0.000001 0.000001 -0.000002 0.000000 0.000001 -0.000002 -0.000001 0.000000 0.000001 -0.000001 0.000000 -0.000001 -0.000001 0.000000 0.000001 -0.000001 -0.000000 0.000001 0.088521 8.205038 21.087099 -3.899873 6.709554 55.252576 -0.000005 9.850092 0.000028 33.602393 9.190940 0.661885 9.076636 11.156479 -7.011588 22.190718 -26.308874 10.011994 0.000000 0.000000 -0.000000 3.041047 7.562636 51.714620 1.573273 -3.491484 48.501890 -0.000001 0.000001 -0.000001 -3.185430 -4.004861 67.076829 1.304814 -3.234621 43.928304 0.000001 0.000001 0.000000 -4.626537 -1.781843 57.138282 2.278829 -4.005234 59.262765 -0.000001 0.000003 -0.000002 -7.034685 -9.338197 44.934186 1.908682 -3.761086 53.801639 -0.000001 0.000003 -0.000000 0.000001 -0.000001 -0.000000 0.000001 -0.000001 -0.000000 0.000001 -0.000001 0.000001 0.000000 -0.000002 -0.000000 0.000001 -0.000002 0.000001 0.000000 -0.000002 -0.000000 0.000001 -0.000002 0.000000 -0.000000 0.000000 0.000000 -0.000000 0.000000 0.000000 -0.000000 0.000000 0.000000 -0.000000 0.000000 0.000000 -0.000000 0.000000 0.000000 -0.000000 0.000000 0.000000 -0.000000 0.000000 0.000000 -0.000000 0.000000 0.000000 0.000000 -0.000000 0.000000 
0.023655 94.159569 3.878938 -3.662171 3.428164 2.190958 -0.000000 -0.000000 0.000000 -2.607938 8.082881 4.590247 18.444195 3.541511 0.635596 -11.473693 0.914154 -5.284614 0.000000 -0.000001 0.000000 0.000001 0.000001 0.000001 -3.281896 -11.320612 -11.718217 22.226902 -4.506346 -1.300114 -14.095533 -2.876065 10.840688 -0.000000 -0.000001 0.000000 0.000001 -0.000003 0.000000 4.298496 -0.742957 -0.518154 1.003490 -0.162739 0.054478 1.003401 -0.169834 0.069539 0.381967 -0.178337 0.043231 0.381974 -0.178337 0.043231 0.000000 -0.000000 -0.000000 0.382040 -0.178338 0.043232 0.381970 -0.178337 0.043231 -0.000000 -0.000000 -0.000000 0.000000 -0.000000 -0.000000 0.668923 -2.098532 -16.857006 4.777335 -6.116304 -37.949381 0.000029 -66.118950 0.000044 -4.804789 -7.604663 -60.565364 -7.220052 -16.942334 15.004580 8.348860 0.690233 4.880267 0.000002 0.000002 0.000001 -0.984013 -1.230246 -15.277777 0.998183 3.272616 -33.916302 0.000001 0.000001 -0.000001 0.808636 5.216527 -29.166947 1.066672 3.372071 -35.098143 0.000001 -0.000001 -0.000001 6.505270 12.626481 -37.619596 1.947874 4.362264 -48.107382 -0.000001 0.000001 -0.000002 9.177761 25.678986 -47.209909 0.954754 3.207169 -33.147803 0.000001 0.000004 -0.000002 0.000002 0.000000 0.000001 0.000002 0.000000 0.000001 0.000001 0.000000 0.000001 -0.000000 0.000000 0.000001 -0.000000 -0.000000 -0.000003 -0.000000 0.000000 0.000001 -0.000000 -0.000000 0.000001 0.189312 8.114529 20.696779 -3.948091 6.617983 55.456983 -0.000003 9.661270 0.000014 33.524693 9.281781 1.219441 8.533737 11.109498 -7.539710 22.252720 -26.276129 10.224541 -0.000000 0.000001 -0.000000 3.035214 7.424111 51.008894 1.532233 -3.454828 47.824605 -0.000001 -0.000002 0.000001 -3.314720 -3.863933 66.407074 1.290193 -3.219406 43.668599 0.000001 0.000001 -0.000001 -4.917024 -1.736432 57.961682 2.213088 -3.965482 58.316941 0.000000 -0.000003 -0.000000 -7.357669 -8.917720 46.621037 1.809455 -3.686563 52.273620 -0.000000 0.000002 -0.000001 0.000002 0.000000 0.000000 0.000002 -0.000000 0.000000 0.000002 -0.000000 -0.000000 0.000000 0.000000 -0.000001 0.000001 0.000000 -0.000001 0.000000 0.000000 -0.000001 0.000001 -0.000000 -0.000001 0.000000 0.000000 0.000000 0.000000 0.000000 0.000000 0.000000 0.000000 0.000000 0.000000 0.000000 0.000000 0.000000 0.000000 0.000000 0.000000 0.000000 0.000000 0.000000 0.000000 0.000000 0.000000 0.000000 0.000000 -0.000000 -0.000000 0.000000 
0.034975 94.160553 3.896702 -3.667682 3.522640 2.220528 -0.000000 0.000000 0.000000 -2.600470 8.092772 4.568945 18.413821 3.478401 0.608951 -11.449438 0.909871 -5.235461 0.000000 0.000002 -0.000000 -0.000000 -0.000001 0.000000 -3.210841 -11.324924 -11.734723 22.208838 -4.596378 -1.298096 -14.127706 -2.893532 10.873320 -0.000000 -0.000003 0.000000 -0.000000 -0.000000 0.000000 4.244516 -0.711314 -0.529850 0.993090 -0.154234 0.054478 0.993004 -0.161421 0.069539 0.387154 -0.136731 0.035576 0.387152 -0.136730 0.035575 -0.000000 0.000000 -0.000000 0.387153 -0.136728 0.035576 0.387223 -0.136731 0.035576 0.000000 -0.000000 -0.000000 -0.000000 0.000000 -0.000000 0.669284 -2.097340 -16.856989 4.776129 -6.115297 -37.967731 -0.000015 -66.105262 -0.000009 -4.795301 -7.620673 -60.578607 -7.220050 -16.942334 15.004577 8.343771 0.679844 4.884423 0.000001 0.000001 0.000003 -0.987254 -1.223906 -15.330080 0.996336 3.269881 -33.884230 0.000000 0.000001 0.000002 0.810385 5.219605 -29.201576 1.066660 3.372070 -35.098153 -0.000004 0.000001 0.000000 6.508835 12.626294 -37.639414 1.946216 4.360788 -48.085666 -0.000002 0.000001 -0.000000 9.181770 25.678474 -47.219977 0.954725 3.207160 -33.147823 0.000002 -0.000005 -0.000002 0.000000 -0.000001 -0.000000 0.000000 -0.000001 -0.000000 -0.000001 -0.000000 0.000000 -0.000001 -0.000002 0.000001 0.000000 -0.000002 -0.000002 -0.000001 -0.000002 0.000001 -0.000000 -0.000002 0.000001 0.288256 8.054237 20.313280 -4.008391 6.518863 55.627178 0.000003 9.463815 -0.000014 33.489562 9.471051 1.838429 7.972958 11.044958 -8.116761 22.324002 -26.238151 10.469549 0.000000 0.000000 -0.000002 3.024050 7.283618 50.293572 1.491117 -3.417185 47.138472 -0.000001 0.000000 0.000001 -3.452789 -3.715128 65.737053 1.275068 -3.203512 43.398564 0.000001 -0.000003 0.000000 -5.217647 -1.713528 58.887063 2.144049 -3.922143 57.312985 0.000001 -0.000003 -0.000000 -7.711634 -8.515113 48.478500 1.703797 -3.602505 50.611538 0.000000 -0.000004 0.000000 0.000001 0.000000 0.000001 0.000001 0.000000 0.000001 0.000001 0.000000 0.000002 0.000000 -0.000001 -0.000000 0.000001 -0.000002 -0.000000 0.000000 -0.000001 -0.000000 0.000001 -0.000002 -0.000000 -0.000000 -0.000000 -0.000000 -0.000000 -0.000000 -0.000000 -0.000000 -0.000000 -0.000000 -0.000000 -0.000000 -0.000000 -0.000000 -0.000000 -0.000000 -0.000000 -0.000000 -0.000000 -0.000000 -0.000000 -0.000000 0.000000 0.000000 0.000000 -0.000000 0.000000 0.000000 
0.050860 94.162132 3.915038 -3.674713 3.627355 2.258869 -0.000000 -0.000000 -0.000000 -2.580049 8.096726 4.529798 18.360554 3.417470 0.589890 -11.413308 0.904592 -5.187631 0.000000 0.000002 -0.000000 0.000001 -0.000000 0.000000 -3.136487 -11.329161 -11.762386 22.195328 -4.693333 -1.295938 -14.164937 -2.916141 10.912483 -0.000000 0.000001 -0.000000 -0.000002 -0.000001 -0.000000 4.191306 -0.680810 -0.538074 0.983113 -0.144933 0.054478 0.983032 -0.152245 0.066660 0.392701 -0.092653 0.028911 0.392706 -0.092653 0.028911 -0.000000 -0.000000 -0.000000 0.392702 -0.092651 0.028911 0.392836 -0.092652 0.028911 -0.000000 -0.000000 -0.000000 -0.000000 -0.000000 -0.000000 0.672029 -2.087341 -16.865550 4.773026 -6.120770 -37.983464 0.000010 -66.086158 0.000009 -4.796956 -7.633380 -60.590499 -7.220051 -16.942334 15.004585 8.332863 0.653620 4.892509 0.000002 -0.000001 -0.000001 -0.987887 -1.222735 -15.339789 0.996448 3.270081 -33.886389 -0.000001 -0.000003 0.000001 0.810721 5.220236 -29.208662 1.066664 3.372078 -35.098136 0.000001 0.000000 -0.000003 6.508710 12.626289 -37.638833 1.945108 4.359788 -48.070970 0.000004 -0.000001 -0.000001 9.177534 25.679032 -47.209345 0.954747 3.207168 -33.147816 0.000002 -0.000002 0.000001 0.000002 0.000001 0.000001 0.000002 0.000001 0.000001 0.000001 0.000001 0.000001 0.000001 -0.000001 0.000000 0.000001 -0.000001 -0.000003 0.000001 -0.000001 0.000000 0.000001 -0.000001 -0.000000 0.391141 7.989680 19.911496 -4.059860 6.438541 55.791594 0.000007 9.308320 -0.000033 33.459755 9.705513 2.456251 7.393738 10.964009 -8.735729 22.404730 -26.196673 10.745432 0.000000 -0.000003 0.000001 3.009659 7.138844 49.568691 1.449916 -3.378557 46.443452 -0.000001 0.000000 0.000000 -3.597550 -3.558788 65.066131 1.259533 -3.187028 43.119613 -0.000001 0.000003 0.000000 -5.523625 -1.714896 59.897904 2.072300 -3.875268 56.257861 0.000000 0.000002 0.000001 -8.097101 -8.141708 50.479896 1.593484 -3.509238 48.833264 0.000001 0.000003 -0.000000 -0.000001 -0.000000 0.000001 -0.000001 -0.000001 -0.000000 -0.000001 -0.000000 -0.000000 -0.000001 0.000001 -0.000001 -0.000001 0.000001 -0.000000 -0.000001 0.000001 -0.000001 -0.000001 0.000001 -0.000000 0.000000 -0.000000 0.000000 0.000000 -0.000000 0.000000 0.000000 -0.000000 0.000000 0.000000 -0.000000 0.000000 0.000000 -0.000000 0.000000 0.000000 -0.000000 0.000000 0.000000 -0.000000 0.000000 0.000000 0.000000 -0.000000 -0.000000 -0.000000 -0.000000 
